<svg xmlns="http://www.w3.org/2000/svg" viewBox="0 0 1200 630" width="1200" height="630">
  <defs>
    <linearGradient id="bg" x1="0" y1="0" x2="1" y2="1">
      <stop offset="0" stop-color="#0b0805"/>
      <stop offset="0.55" stop-color="#141009"/>
      <stop offset="1" stop-color="#0b0805"/>
    </linearGradient>
    <radialGradient id="glow" cx="0.22" cy="0.35" r="0.55">
      <stop offset="0" stop-color="#c5f014" stop-opacity="0.22"/>
      <stop offset="1" stop-color="#c5f014" stop-opacity="0"/>
    </radialGradient>
    <pattern id="grid" x="0" y="0" width="48" height="48" patternUnits="userSpaceOnUse">
      <path d="M 48 0 L 0 0 0 48" fill="none" stroke="#f7f3ec" stroke-opacity="0.03" stroke-width="1"/>
    </pattern>
  </defs>

  <rect width="1200" height="630" fill="url(#bg)"/>
  <rect width="1200" height="630" fill="url(#grid)"/>
  <rect width="1200" height="630" fill="url(#glow)"/>

  <!-- Logo dot -->
  <circle cx="80" cy="80" r="7" fill="#c5f014"/>
  <circle cx="80" cy="80" r="16" fill="#c5f014" fill-opacity="0.22"/>

  <!-- Brand -->
  <text x="104" y="92" font-family="Georgia, 'Instrument Serif', serif" font-size="38" font-style="italic" fill="#f7f3ec">Dicto</text>

  <!-- Eyebrow -->
  <text x="80" y="240" font-family="'JetBrains Mono', ui-monospace, Menlo, monospace" font-size="18" letter-spacing="6" fill="#968b74">ТРАНСКРИБАЦИЯ · AI-АНАЛИЗ · RAG-ЧАТ</text>

  <!-- H1 -->
  <text x="80" y="335" font-family="Georgia, 'Instrument Serif', serif" font-size="92" fill="#f7f3ec">Аудио и видео</text>
  <text x="80" y="440" font-family="Georgia, 'Instrument Serif', serif" font-size="92" fill="#f7f3ec">превращаем в </text>
  <text x="635" y="440" font-family="Georgia, 'Instrument Serif', serif" font-size="92" font-style="italic" fill="#c5f014">текст</text>
  <text x="865" y="440" font-family="Georgia, 'Instrument Serif', serif" font-size="92" fill="#f7f3ec">.</text>

  <!-- Sub -->
  <text x="80" y="508" font-family="Inter, 'Helvetica Neue', sans-serif" font-size="26" fill="#c9bba4">180 минут бесплатно при регистрации · без карты</text>

  <!-- URL pill -->
  <rect x="80" y="548" width="170" height="44" rx="22" fill="#c5f014"/>
  <text x="165" y="577" font-family="'JetBrains Mono', ui-monospace, monospace" font-size="18" font-weight="600" text-anchor="middle" fill="#0b0805">dicto.pro</text>

  <!-- Waveform -->
  <g transform="translate(950 200)" fill="#c5f014" opacity="0.9">
    <rect x="0" y="30" width="6" height="40" rx="3"/>
    <rect x="14" y="10" width="6" height="80" rx="3"/>
    <rect x="28" y="25" width="6" height="50" rx="3"/>
    <rect x="42" y="0" width="6" height="100" rx="3"/>
    <rect x="56" y="20" width="6" height="60" rx="3"/>
    <rect x="70" y="35" width="6" height="30" rx="3"/>
    <rect x="84" y="15" width="6" height="70" rx="3"/>
    <rect x="98" y="5" width="6" height="90" rx="3"/>
    <rect x="112" y="28" width="6" height="44" rx="3"/>
    <rect x="126" y="18" width="6" height="64" rx="3"/>
    <rect x="140" y="32" width="6" height="36" rx="3"/>
    <rect x="154" y="12" width="6" height="76" rx="3"/>
  </g>
</svg>
